<?xml version="1.0" encoding="UTF-8"?>
<svg width="512" height="512" viewBox="0 0 512 512" fill="none" xmlns="http://www.w3.org/2000/svg">
  <!-- Background -->
  <rect width="512" height="512" rx="128" fill="#030712"/>
  
  <!-- Heart shape -->
  <path d="M256 384l-22.4-20.3C154.4 297 112 259.7 112 212c0-33.9 27.1-61 61-61 26.9 0 52.7 12.5 69.5 32.3C259.3 163.5 285.1 151 312 151c33.9 0 61 27.1 61 61 0 47.7-42.4 85-121.6 151.7L256 384z" fill="url(#heart-gradient)"/>
  
  <!-- Text -->
  <text x="256" y="280" font-family="Arial Black" font-size="160" font-weight="900" text-anchor="middle" fill="url(#text-gradient)">18</text>
  <text x="256" y="340" font-family="Arial Black" font-size="72" font-weight="900" text-anchor="middle" fill="url(#xxx-gradient)">XXX</text>
  
  <!-- Gradients -->
  <defs>
    <linearGradient id="heart-gradient" x1="0%" y1="0%" x2="100%" y2="100%">
      <stop offset="0%" style="stop-color:#EC4899"/>
      <stop offset="50%" style="stop-color:#EF4444"/>
      <stop offset="100%" style="stop-color:#EC4899"/>
    </linearGradient>
    
    <linearGradient id="text-gradient" x1="0%" y1="0%" x2="100%" y2="100%">
      <stop offset="0%" style="stop-color:#34D399"/>
      <stop offset="50%" style="stop-color:#06B6D4"/>
      <stop offset="100%" style="stop-color:#34D399"/>
    </linearGradient>
    
    <linearGradient id="xxx-gradient" x1="0%" y1="0%" x2="100%" y2="100%">
      <stop offset="0%" style="stop-color:#F43F5E"/>
      <stop offset="50%" style="stop-color:#E11D48"/>
      <stop offset="100%" style="stop-color:#F43F5E"/>
    </linearGradient>
  </defs>
</svg> 